<svg width="500" height="500" fill="none" xmlns="http://www.w3.org/2000/svg">
    <g clip-path="url(#a)">
        <path d="M500 0H0v500h500V0Z" fill="#ED1C24"/>
        <path fill-rule="evenodd" clip-rule="evenodd" d="M236.34 99.017c-28.113 5.64-49.956 27.926-54.727 55.836-1.008 5.894-1.133 16.748-.254 22.069l.612 3.705 4.088-3.518c25.639-22.065 60.996-29.269 92.983-18.948 6.734 2.174 18.072 7.634 20.324 9.788 2.787 2.666 4.03 5.514 4.03 9.235 0 4.138-1.262 6.61-5.364 10.51-12.819 12.188-38.664 17.524-69.749 14.397-12.147-1.221-24.219-4.58-35.987-10.014-25.13-11.602-43.079-13.606-62.782-7.008-22.176 7.426-38.626 25.319-44.739 48.663-1.898 7.249-2.353 20.219-.98 27.885 1.153 6.428 3.912 14.561 6.883 20.288 8.077 15.569 23.534 28.485 40.385 33.745 9.617 3.002 21.381 3.865 31.121 2.285 5.231-.85 14.266-3.439 14.266-4.089 0-.223-1.199-1.841-2.665-3.595-6.819-8.162-13.564-20.159-16.662-29.642-2.497-7.64-3.45-13.464-3.477-21.244-.022-6.293.13-7.453 1.535-11.739 5.798-17.689 23.73-28.581 54.284-32.972 4.526-.651 11.068-.873 27.681-.943 13.782-.057 23.328-.328 26.051-.738 26.564-4.007 42.883-12.412 49.797-25.649 5.594-10.71 6.565-23.687 2.844-38.008-6.769-26.054-28.332-45.924-54.855-50.55-6.409-1.117-18.431-.995-24.643.251Zm100.009 83.01c-4.801.808-13.799 3.453-13.799 4.057 0 .223 1.199 1.841 2.665 3.595 6.819 8.162 13.564 20.159 16.662 29.642 2.497 7.64 3.45 13.464 3.477 21.244.022 6.306-.129 7.448-1.548 11.78-5.779 17.633-23.766 28.548-54.272 32.932-4.525.65-11.067.872-27.68.942-13.782.057-23.328.328-26.051.738-26.564 4.007-42.883 12.412-49.797 25.649-5.594 10.71-6.565 23.687-2.844 38.008 5.866 22.58 23.283 41.112 45.251 48.15 16.816 5.388 36.07 4.05 51.318-3.565 19.919-9.949 33.99-28.679 37.656-50.122 1.008-5.894 1.133-16.748.254-22.069l-.612-3.705-4.088 3.518c-25.639 22.065-60.996 29.269-92.983 18.948-6.734-2.173-18.072-7.633-20.324-9.788-2.787-2.666-4.03-5.513-4.03-9.235 0-4.138 1.262-6.61 5.364-10.51 12.819-12.188 38.664-17.524 69.749-14.397 12.147 1.221 24.219 4.581 35.987 10.014 25.13 11.602 43.079 13.606 62.782 7.008 22.176-7.426 38.626-25.318 44.739-48.663 1.898-7.249 2.353-20.218.979-27.885-1.152-6.428-3.911-14.56-6.882-20.288-8.077-15.569-23.534-28.484-40.385-33.745-9.508-2.967-22.023-3.86-31.588-2.253Z" fill="#fff"/>
    </g>
    <defs>
        <clipPath id="a">
            <path fill="#fff" d="M0 0h500v500H0z"/>
        </clipPath>
    </defs>
</svg>
